<?xml version="1.0" standalone="no"?>
<!DOCTYPE svg PUBLIC "-//W3C//DTD SVG 20010904//EN"
 "http://www.w3.org/TR/2001/REC-SVG-20010904/DTD/svg10.dtd">
<svg version="1.0" xmlns="http://www.w3.org/2000/svg"
 width="361.000000pt" height="160.000000pt" viewBox="0 0 361.000000 160.000000"
 preserveAspectRatio="xMidYMid meet">

<g transform="translate(0.000000,160.000000) scale(0.100000,-0.100000)"
fill="#000000" stroke="none">
<path d="M0 800 l0 -800 1805 0 1805 0 0 800 0 800 -1805 0 -1805 0 0 -800z
m905 20 c0 -308 0 -315 -20 -315 -20 0 -20 8 -23 305 -1 168 0 311 3 318 3 7
13 12 22 10 17 -3 18 -26 18 -318z m518 279 c45 -12 100 -58 117 -99 27 -65
-15 -167 -78 -191 l-24 -9 26 -25 c20 -19 26 -34 26 -67 0 -66 11 -116 26
-122 26 -10 62 16 88 64 21 38 26 62 26 114 0 112 53 237 123 290 75 57 181
75 246 42 59 -31 70 -99 22 -147 -45 -44 -121 -35 -121 15 0 31 9 38 26 21 30
-30 63 8 38 44 -29 40 -100 20 -147 -42 -91 -119 -100 -339 -16 -383 90 -46
194 66 206 220 7 93 10 103 42 114 34 12 54 3 41 -18 -14 -21 -12 -28 10 -50
25 -25 100 -27 136 -4 27 18 29 18 38 -12 5 -17 -1 -24 -35 -39 -22 -11 -59
-21 -81 -24 -37 -6 -40 -9 -57 -58 -24 -71 -65 -127 -118 -162 -111 -74 -247
-60 -314 31 l-28 39 -21 -40 c-47 -93 -189 -106 -219 -20 -6 18 -11 54 -11 80
0 61 -15 99 -41 106 -16 4 -19 12 -17 36 2 25 9 32 35 39 71 18 98 110 47 161
-36 37 -121 55 -182 39 -49 -13 -102 -59 -102 -89 0 -20 29 -53 47 -53 14 0
17 -18 7 -43 -8 -21 -49 -9 -84 23 -59 55 -32 158 52 201 71 36 171 43 271 18z
m1036 11 c72 -20 101 -75 81 -149 -10 -36 -14 -41 -41 -41 -26 0 -29 2 -19 19
15 29 12 72 -7 93 -20 22 -66 24 -87 2 -27 -26 -18 -67 40 -184 46 -92 57
-122 57 -164 1 -89 -49 -147 -140 -162 -52 -8 -121 22 -146 65 -39 66 -9 170
64 218 27 18 39 32 35 42 -3 9 -14 41 -25 72 -16 44 -18 63 -10 91 22 81 109
124 198 98z m366 -22 c-15 -92 -36 -271 -32 -275 6 -5 119 26 130 37 5 4 15
61 23 126 8 65 18 122 22 125 12 11 78 18 90 10 9 -6 3 -79 -25 -294 l-37
-287 -51 0 -51 0 13 108 c7 59 12 117 11 128 l-3 22 -65 -20 c-36 -11 -66 -21
-67 -22 -1 -1 -7 -32 -13 -70 -14 -90 -33 -124 -78 -143 -76 -32 -142 17 -127
93 6 36 56 97 97 120 12 7 20 41 32 149 25 215 21 202 64 213 67 18 74 16 67
-20z m-2217 -47 c59 -30 76 -69 80 -188 l4 -103 -33 1 c-24 1 -27 3 -11 6 21
4 22 9 22 95 0 116 -16 153 -78 180 -77 34 -161 8 -197 -62 -10 -19 -15 -59
-15 -119 0 -85 1 -90 23 -94 19 -4 18 -4 -5 -6 l-28 -1 0 104 c0 90 3 107 23
137 44 66 140 88 215 50z m722 -43 c0 -27 -50 -345 -60 -377 -20 -72 -90 -112
-155 -91 -40 13 -55 35 -55 80 0 49 26 88 84 125 l53 34 13 110 c12 105 14
111 39 120 38 14 81 13 81 -1z m-764 -17 c-4 -5 15 -17 41 -27 25 -10 41 -20
35 -22 -7 -2 -12 -25 -12 -54 0 -41 -5 -54 -29 -79 -55 -55 -148 -33 -172 39
-7 20 -17 40 -23 44 -6 4 -3 9 9 13 58 19 77 30 107 61 30 31 57 46 44 25z
m66 -241 c54 -15 78 -51 76 -114 -1 -39 -2 -42 -5 -16 -6 55 -24 90 -54 105
-40 21 -63 19 -74 -7 -17 -38 -88 -36 -100 2 -9 29 -49 25 -85 -7 -23 -21 -33
-41 -39 -78 l-9 -50 -1 47 c-1 55 32 102 82 117 44 13 164 13 209 1z m-215
-152 c-3 -8 -6 -5 -6 6 -1 11 2 17 5 13 3 -3 4 -12 1 -19z m233 7 c0 -8 -4
-15 -10 -15 -5 0 -10 7 -10 15 0 8 5 15 10 15 6 0 10 -7 10 -15z"/>
<path d="M2283 748 c-39 -43 -46 -64 -32 -105 17 -54 72 -70 109 -33 11 11 20
32 20 46 0 34 -39 124 -54 124 -7 0 -26 -15 -43 -32z"/>
<path d="M2636 660 c-29 -35 -30 -39 -17 -59 15 -24 39 -4 46 39 4 23 5 43 2
46 -2 3 -16 -9 -31 -26z"/>
<path d="M1142 667 c-18 -18 -32 -41 -32 -50 0 -24 28 -33 47 -14 16 15 36 97
24 97 -4 0 -21 -15 -39 -33z"/>
<path d="M509 926 c-25 -17 -54 -35 -63 -41 -25 -15 -3 -71 35 -90 69 -36 129
-1 136 82 5 49 4 52 -25 67 -17 9 -32 16 -34 15 -2 -1 -24 -15 -49 -33z m83
-11 c13 -17 9 -20 -27 -20 -19 0 -35 1 -35 2 0 27 46 41 62 18z"/>
<path d="M486 715 c8 -20 40 -28 64 -15 33 18 23 30 -25 30 -35 0 -43 -3 -39
-15z"/>
</g>
</svg>
